<svg width="24" height="24" viewBox="0 0 24 24" fill="none" xmlns="http://www.w3.org/2000/svg">
<path d="M19.5 9.20039C19.5 5.05412 16.1392 1.6875 12 1.6875C7.86085 1.6875 4.5 5.05412 4.5 9.20039C4.5 12.6024 6.87028 15.6501 10.125 16.5006L10.7618 18.2017C8.99292 18.308 6.02123 18.7332 6.02123 20.2216C6.02123 22.2416 11.3986 22.3125 12.0354 22.3125C12.6722 22.3125 18.0495 22.2416 18.0495 20.2216C18.0495 18.6978 15.0425 18.308 13.2736 18.2017L13.875 16.5361C17.1297 15.6856 19.5 12.6379 19.5 9.20039ZM14.441 9.20039C14.441 10.547 13.3443 11.6456 12 11.6456C10.6557 11.6456 9.55896 10.547 9.55896 9.20039C9.55896 7.85374 10.6557 6.75515 12 6.75515C13.3443 6.75515 14.441 7.85374 14.441 9.20039ZM16.7759 20.2216C16.4222 20.576 14.6887 21.1076 12 21.1076C9.3467 21.1076 7.61321 20.576 7.22406 20.2216C7.54245 19.9027 8.99292 19.442 11.1863 19.3711L11.5755 20.3988C11.6462 20.576 11.7877 20.6823 12 20.6823C12.1769 20.6823 12.3538 20.576 12.4245 20.3988L12.7783 19.3711C15.0071 19.442 16.4222 19.9027 16.7759 20.2216Z" fill="white"/>
</svg>
